<?xml version="1.0" encoding="UTF-8" standalone="no"?>
<!DOCTYPE svg PUBLIC "-//W3C//DTD SVG 1.1//EN"
 "http://www.w3.org/Graphics/SVG/1.1/DTD/svg11.dtd">
<!-- Generated by graphviz version 14.1.0 (20251206.1807)
 -->
<!-- Pages: 1 -->
<svg width="245pt" height="113pt"
 viewBox="0.00 0.00 245.00 113.00" xmlns="http://www.w3.org/2000/svg" xmlns:xlink="http://www.w3.org/1999/xlink">
<g id="graph0" class="graph" transform="scale(1 1) rotate(0) translate(4 108.7)">
<polygon fill="white" stroke="none" points="-4,4 -4,-108.7 240.98,-108.7 240.98,4 -4,4"/>
<!-- x_offset -->
<g id="node1" class="node">
<title>x_offset</title>
<polygon fill="lightgray" stroke="black" points="115.73,-104.7 70.48,-104.7 70.48,-86.2 115.73,-86.2 115.73,-104.7"/>
<text xml:space="preserve" text-anchor="middle" x="93.1" y="-92.15" font-family="Times New Roman,serif" font-size="9.00">x_offset</text>
</g>
<!-- Right -->
<g id="node7" class="node">
<title>Right</title>
<ellipse fill="lightblue" stroke="black" cx="93.1" cy="-25.1" rx="25.1" ry="25.1"/>
<text xml:space="preserve" text-anchor="middle" x="93.1" y="-21.8" font-family="Times New Roman,serif" font-size="9.00">Right</text>
</g>
<!-- x_offset&#45;&gt;Right -->
<g id="edge6" class="edge">
<title>x_offset&#45;&gt;Right</title>
<path fill="none" stroke="green" stroke-width="0.44" d="M93.1,-85.8C93.1,-79.45 93.1,-70.36 93.1,-61.19"/>
<polygon fill="green" stroke="green" stroke-width="0.44" points="96.6,-61.2 93.1,-51.2 89.6,-61.2 96.6,-61.2"/>
</g>
<!-- v_cart -->
<g id="node2" class="node">
<title>v_cart</title>
<polygon fill="lightgray" stroke="black" points="236.98,-104.7 199.23,-104.7 199.23,-86.2 236.98,-86.2 236.98,-104.7"/>
<text xml:space="preserve" text-anchor="middle" x="218.1" y="-92.15" font-family="Times New Roman,serif" font-size="9.00">v_cart</text>
</g>
<!-- Left -->
<g id="node5" class="node">
<title>Left</title>
<ellipse fill="lightblue" stroke="black" cx="157.1" cy="-25.1" rx="21.39" ry="21.39"/>
<text xml:space="preserve" text-anchor="middle" x="157.1" y="-21.8" font-family="Times New Roman,serif" font-size="9.00">Left</text>
</g>
<!-- v_cart&#45;&gt;Left -->
<g id="edge2" class="edge">
<title>v_cart&#45;&gt;Left</title>
<path fill="none" stroke="green" stroke-width="0.22" d="M210.38,-85.8C202.2,-76.64 188.95,-61.79 177.71,-49.19"/>
<polygon fill="green" stroke="green" stroke-width="0.22" points="180.52,-47.09 171.25,-41.96 175.3,-51.75 180.52,-47.09"/>
</g>
<!-- sin_theta -->
<g id="node3" class="node">
<title>sin_theta</title>
<polygon fill="lightgray" stroke="black" points="180.85,-104.7 133.35,-104.7 133.35,-86.2 180.85,-86.2 180.85,-104.7"/>
<text xml:space="preserve" text-anchor="middle" x="157.1" y="-92.15" font-family="Times New Roman,serif" font-size="9.00">sin_theta</text>
</g>
<!-- sin_theta&#45;&gt;Left -->
<g id="edge3" class="edge">
<title>sin_theta&#45;&gt;Left</title>
<path fill="none" stroke="green" stroke-width="0.75" d="M157.1,-85.8C157.1,-78.62 157.1,-67.96 157.1,-57.62"/>
<polygon fill="green" stroke="green" stroke-width="0.75" points="160.6,-57.85 157.1,-47.85 153.6,-57.85 160.6,-57.85"/>
</g>
<!-- sin_theta&#45;&gt;Right -->
<g id="edge4" class="edge">
<title>sin_theta&#45;&gt;Right</title>
<path fill="none" stroke="red" stroke-width="0.52" d="M149,-85.8C141,-77.25 128.36,-63.76 117.13,-51.76"/>
<polygon fill="red" stroke="red" stroke-width="0.52" points="119.94,-49.64 110.55,-44.74 114.83,-54.43 119.94,-49.64"/>
</g>
<!-- omega -->
<g id="node4" class="node">
<title>omega</title>
<polygon fill="lightgray" stroke="black" points="52.73,-104.7 13.48,-104.7 13.48,-86.2 52.73,-86.2 52.73,-104.7"/>
<text xml:space="preserve" text-anchor="middle" x="33.1" y="-92.15" font-family="Times New Roman,serif" font-size="9.00">omega</text>
</g>
<!-- omega&#45;&gt;Left -->
<g id="edge1" class="edge">
<title>omega&#45;&gt;Left</title>
<path fill="none" stroke="green" stroke-width="0.19" d="M52.89,-86.75C72.41,-78.79 102.78,-65.4 127.1,-50.2 129.23,-48.87 131.39,-47.41 133.51,-45.89"/>
<polygon fill="green" stroke="green" stroke-width="0.19" points="135.37,-48.87 141.2,-40.02 131.13,-43.3 135.37,-48.87"/>
</g>
<!-- None -->
<g id="node6" class="node">
<title>None</title>
<ellipse fill="lightblue" stroke="black" cx="25.1" cy="-25.1" rx="25.1" ry="25.1"/>
<text xml:space="preserve" text-anchor="middle" x="25.1" y="-21.8" font-family="Times New Roman,serif" font-size="9.00">None</text>
</g>
<!-- omega&#45;&gt;None -->
<g id="edge5" class="edge">
<title>omega&#45;&gt;None</title>
<path fill="none" stroke="green" stroke-width="0.24" d="M32.09,-85.8C31.33,-79.31 30.24,-69.97 29.14,-60.59"/>
<polygon fill="green" stroke="green" stroke-width="0.24" points="32.64,-60.43 28,-50.9 25.69,-61.24 32.64,-60.43"/>
</g>
<!-- omega&#45;&gt;Right -->
<g id="edge7" class="edge">
<title>omega&#45;&gt;Right</title>
<path fill="none" stroke="green" stroke-width="0.26" d="M40.7,-85.8C48.1,-77.37 59.72,-64.13 70.14,-52.26"/>
<polygon fill="green" stroke="green" stroke-width="0.26" points="72.53,-54.85 76.49,-45.02 67.27,-50.23 72.53,-54.85"/>
</g>
</g>
</svg>
