<?xml version="1.0" encoding="UTF-8" standalone="no"?>
<!DOCTYPE svg PUBLIC "-//W3C//DTD SVG 1.1//EN"
 "http://www.w3.org/Graphics/SVG/1.1/DTD/svg11.dtd">
<!-- Generated by graphviz version 14.0.1 (20251006.0113)
 -->
<!-- Pages: 1 -->
<svg width="300pt" height="144pt"
 viewBox="0.00 0.00 300.00 144.00" xmlns="http://www.w3.org/2000/svg" xmlns:xlink="http://www.w3.org/1999/xlink">
<g id="graph0" class="graph" transform="scale(1 1) rotate(0) translate(4 140.41)">
<polygon fill="white" stroke="none" points="-4,4 -4,-140.41 295.73,-140.41 295.73,4 -4,4"/>
<!-- x_offset -->
<g id="node1" class="node">
<title>x_offset</title>
<polygon fill="lightgray" stroke="black" points="45.25,-120.56 0,-120.56 0,-102.06 45.25,-102.06 45.25,-120.56"/>
<text xml:space="preserve" text-anchor="middle" x="22.62" y="-108.01" font-family="Times,serif" font-size="9.00">x_offset</text>
</g>
<!-- Left -->
<g id="node5" class="node">
<title>Left</title>
<ellipse fill="lightblue" stroke="black" cx="52.62" cy="-25.1" rx="21.39" ry="21.39"/>
<text xml:space="preserve" text-anchor="middle" x="52.62" y="-21.8" font-family="Times,serif" font-size="9.00">Left</text>
</g>
<!-- x_offset&#45;&gt;Left -->
<g id="edge3" class="edge">
<title>x_offset&#45;&gt;Left</title>
<path fill="none" stroke="red" stroke-width="0.3" d="M25.72,-101.61C29.59,-90.76 36.41,-71.63 42.21,-55.34"/>
<polygon fill="red" stroke="red" stroke-width="0.3" points="45.44,-56.69 45.5,-46.09 38.85,-54.34 45.44,-56.69"/>
</g>
<!-- Right -->
<g id="node7" class="node">
<title>Right</title>
<ellipse fill="lightblue" stroke="black" cx="116.62" cy="-25.1" rx="25.1" ry="25.1"/>
<text xml:space="preserve" text-anchor="middle" x="116.62" y="-21.8" font-family="Times,serif" font-size="9.00">Right</text>
</g>
<!-- x_offset&#45;&gt;Right -->
<g id="edge4" class="edge">
<title>x_offset&#45;&gt;Right</title>
<path fill="none" stroke="red" stroke-width="0.3" d="M32.33,-101.61C45.94,-89.43 71.18,-66.81 90.51,-49.5"/>
<polygon fill="red" stroke="red" stroke-width="0.3" points="92.66,-52.27 97.77,-42.99 87.98,-47.06 92.66,-52.27"/>
</g>
<!-- v_cart -->
<g id="node2" class="node">
<title>v_cart</title>
<polygon fill="lightgray" stroke="black" points="223.5,-120.56 185.75,-120.56 185.75,-102.06 223.5,-102.06 223.5,-120.56"/>
<text xml:space="preserve" text-anchor="middle" x="204.62" y="-108.01" font-family="Times,serif" font-size="9.00">v_cart</text>
</g>
<!-- sin_theta -->
<g id="node3" class="node">
<title>sin_theta</title>
<polygon fill="lightgray" stroke="black" points="110.38,-120.56 62.88,-120.56 62.88,-102.06 110.38,-102.06 110.38,-120.56"/>
<text xml:space="preserve" text-anchor="middle" x="86.62" y="-108.01" font-family="Times,serif" font-size="9.00">sin_theta</text>
</g>
<!-- sin_theta&#45;&gt;Left -->
<g id="edge2" class="edge">
<title>sin_theta&#45;&gt;Left</title>
<path fill="none" stroke="green" stroke-width="0.25" d="M83.11,-101.61C78.66,-90.58 70.76,-71.02 64.12,-54.56"/>
<polygon fill="green" stroke="green" stroke-width="0.25" points="67.52,-53.64 60.53,-45.67 61.03,-56.26 67.52,-53.64"/>
</g>
<!-- sin_theta&#45;&gt;Right -->
<g id="edge6" class="edge">
<title>sin_theta&#45;&gt;Right</title>
<path fill="none" stroke="red" stroke-width="0.39" d="M89.72,-101.61C93.31,-91.55 99.43,-74.37 104.92,-58.94"/>
<polygon fill="red" stroke="red" stroke-width="0.39" points="108.16,-60.3 108.22,-49.7 101.56,-57.95 108.16,-60.3"/>
</g>
<!-- omega -->
<g id="node4" class="node">
<title>omega</title>
<polygon fill="lightgray" stroke="black" points="167.25,-120.56 128,-120.56 128,-102.06 167.25,-102.06 167.25,-120.56"/>
<text xml:space="preserve" text-anchor="middle" x="147.62" y="-108.01" font-family="Times,serif" font-size="9.00">omega</text>
</g>
<!-- omega&#45;&gt;Left -->
<g id="edge5" class="edge">
<title>omega&#45;&gt;Left</title>
<path fill="none" stroke="green" stroke-width="0.24" d="M137.82,-101.61C123.32,-88.76 95.74,-64.32 75.88,-46.72"/>
<polygon fill="green" stroke="green" stroke-width="0.24" points="78.25,-44.14 68.45,-40.12 73.61,-49.38 78.25,-44.14"/>
</g>
<!-- omega&#45;&gt;Right -->
<g id="edge1" class="edge">
<title>omega&#45;&gt;Right</title>
<path fill="none" stroke="red" stroke-width="0.15" d="M144.42,-101.61C140.68,-91.45 134.28,-74.05 128.55,-58.5"/>
<polygon fill="red" stroke="red" stroke-width="0.15" points="131.93,-57.54 125.19,-49.36 125.36,-59.96 131.93,-57.54"/>
</g>
<!-- None -->
<g id="node6" class="node">
<title>None</title>
<ellipse fill="lightblue" stroke="black" cx="266.62" cy="-111.31" rx="25.1" ry="25.1"/>
<text xml:space="preserve" text-anchor="middle" x="266.62" y="-108.01" font-family="Times,serif" font-size="9.00">None</text>
</g>
</g>
</svg>
