<?xml version="1.0" encoding="UTF-8" standalone="no"?>
<!DOCTYPE svg PUBLIC "-//W3C//DTD SVG 1.1//EN"
 "http://www.w3.org/Graphics/SVG/1.1/DTD/svg11.dtd">
<!-- Generated by graphviz version 14.1.0 (20251206.1807)
 -->
<!-- Pages: 1 -->
<svg width="175pt" height="164pt"
 viewBox="0.00 0.00 175.00 164.00" xmlns="http://www.w3.org/2000/svg" xmlns:xlink="http://www.w3.org/1999/xlink">
<g id="graph0" class="graph" transform="scale(1 1) rotate(0) translate(4 159.62)">
<polygon fill="white" stroke="none" points="-4,4 -4,-159.62 171.31,-159.62 171.31,4 -4,4"/>
<!-- &#45;1 -->
<g id="node1" class="node">
<title>&#45;1</title>
<polygon fill="lightgray" stroke="black" points="41.31,-155.62 17.81,-155.62 17.81,-137.12 41.31,-137.12 41.31,-155.62"/>
<text xml:space="preserve" text-anchor="middle" x="29.56" y="-143.07" font-family="Times New Roman,serif" font-size="9.00">&#45;1</text>
</g>
<!-- Bird Y Position -->
<g id="node5" class="node">
<title>Bird Y Position</title>
<ellipse fill="lightblue" stroke="black" cx="50.56" cy="-50.56" rx="50.56" ry="50.56"/>
<text xml:space="preserve" text-anchor="middle" x="50.56" y="-47.26" font-family="Times New Roman,serif" font-size="9.00">Bird Y Position</text>
</g>
<!-- &#45;1&#45;&gt;Bird Y Position -->
<g id="edge2" class="edge">
<title>&#45;1&#45;&gt;Bird Y Position</title>
<path fill="none" stroke="green" stroke-width="0.18" d="M31.5,-136.71C32.97,-130.11 35.15,-120.39 37.51,-109.85"/>
<polygon fill="green" stroke="green" stroke-width="0.18" points="40.88,-110.8 39.65,-100.28 34.05,-109.27 40.88,-110.8"/>
</g>
<!-- &#45;2 -->
<g id="node2" class="node">
<title>&#45;2</title>
<polygon fill="lightgray" stroke="black" points="125.31,-155.62 101.81,-155.62 101.81,-137.12 125.31,-137.12 125.31,-155.62"/>
<text xml:space="preserve" text-anchor="middle" x="113.56" y="-143.07" font-family="Times New Roman,serif" font-size="9.00">&#45;2</text>
</g>
<!-- &#45;3 -->
<g id="node3" class="node">
<title>&#45;3</title>
<polygon fill="lightgray" stroke="black" points="83.31,-155.62 59.81,-155.62 59.81,-137.12 83.31,-137.12 83.31,-155.62"/>
<text xml:space="preserve" text-anchor="middle" x="71.56" y="-143.07" font-family="Times New Roman,serif" font-size="9.00">&#45;3</text>
</g>
<!-- &#45;3&#45;&gt;Bird Y Position -->
<g id="edge1" class="edge">
<title>&#45;3&#45;&gt;Bird Y Position</title>
<path fill="none" stroke="red" stroke-width="0.23" d="M69.62,-136.71C68.14,-130.11 65.97,-120.39 63.61,-109.85"/>
<polygon fill="red" stroke="red" stroke-width="0.23" points="67.08,-109.34 61.48,-100.35 60.25,-110.87 67.08,-109.34"/>
</g>
<!-- &#45;4 -->
<g id="node4" class="node">
<title>&#45;4</title>
<polygon fill="lightgray" stroke="black" points="167.31,-155.62 143.81,-155.62 143.81,-137.12 167.31,-137.12 167.31,-155.62"/>
<text xml:space="preserve" text-anchor="middle" x="155.56" y="-143.07" font-family="Times New Roman,serif" font-size="9.00">&#45;4</text>
</g>
</g>
</svg>
