<?xml version="1.0" encoding="UTF-8" standalone="no"?>
<!DOCTYPE svg PUBLIC "-//W3C//DTD SVG 1.1//EN"
 "http://www.w3.org/Graphics/SVG/1.1/DTD/svg11.dtd">
<!-- Generated by graphviz version 14.1.0 (20251206.1807)
 -->
<!-- Pages: 1 -->
<svg width="158pt" height="118pt"
 viewBox="0.00 0.00 158.00 118.00" xmlns="http://www.w3.org/2000/svg" xmlns:xlink="http://www.w3.org/1999/xlink">
<g id="graph0" class="graph" transform="scale(1 1) rotate(0) translate(4 114.01)">
<polygon fill="white" stroke="none" points="-4,4 -4,-114.01 153.5,-114.01 153.5,4 -4,4"/>
<!-- &#45;1 -->
<g id="node1" class="node">
<title>&#45;1</title>
<polygon fill="lightgray" stroke="black" points="23.5,-110.01 0,-110.01 0,-91.51 23.5,-91.51 23.5,-110.01"/>
<text xml:space="preserve" text-anchor="middle" x="11.75" y="-97.46" font-family="Times New Roman,serif" font-size="9.00">&#45;1</text>
</g>
<!-- bird_y -->
<g id="node5" class="node">
<title>bird_y</title>
<ellipse fill="lightblue" stroke="black" cx="74.75" cy="-27.75" rx="27.75" ry="27.75"/>
<text xml:space="preserve" text-anchor="middle" x="74.75" y="-24.45" font-family="Times New Roman,serif" font-size="9.00">bird_y</text>
</g>
<!-- &#45;1&#45;&gt;bird_y -->
<g id="edge1" class="edge">
<title>&#45;1&#45;&gt;bird_y</title>
<path fill="none" stroke="green" stroke-width="0.12" d="M19.48,-91.05C27.09,-82.46 39.15,-68.88 50.06,-56.58"/>
<polygon fill="green" stroke="green" stroke-width="0.12" points="52.52,-59.08 56.54,-49.28 47.28,-54.44 52.52,-59.08"/>
</g>
<!-- &#45;2 -->
<g id="node2" class="node">
<title>&#45;2</title>
<polygon fill="lightgray" stroke="black" points="65.5,-110.01 42,-110.01 42,-91.51 65.5,-91.51 65.5,-110.01"/>
<text xml:space="preserve" text-anchor="middle" x="53.75" y="-97.46" font-family="Times New Roman,serif" font-size="9.00">&#45;2</text>
</g>
<!-- &#45;2&#45;&gt;bird_y -->
<g id="edge2" class="edge">
<title>&#45;2&#45;&gt;bird_y</title>
<path fill="none" stroke="green" stroke-width="0.13" d="M56.33,-91.05C58.35,-84.2 61.32,-74.18 64.28,-64.16"/>
<polygon fill="green" stroke="green" stroke-width="0.13" points="67.55,-65.43 67.03,-54.85 60.84,-63.45 67.55,-65.43"/>
</g>
<!-- &#45;3 -->
<g id="node3" class="node">
<title>&#45;3</title>
<polygon fill="lightgray" stroke="black" points="107.5,-110.01 84,-110.01 84,-91.51 107.5,-91.51 107.5,-110.01"/>
<text xml:space="preserve" text-anchor="middle" x="95.75" y="-97.46" font-family="Times New Roman,serif" font-size="9.00">&#45;3</text>
</g>
<!-- &#45;3&#45;&gt;bird_y -->
<g id="edge3" class="edge">
<title>&#45;3&#45;&gt;bird_y</title>
<path fill="none" stroke="red" stroke-width="0.45" d="M93.17,-91.05C91.19,-84.35 88.31,-74.59 85.41,-64.78"/>
<polygon fill="red" stroke="red" stroke-width="0.45" points="88.8,-63.92 82.61,-55.32 82.09,-65.91 88.8,-63.92"/>
</g>
<!-- &#45;4 -->
<g id="node4" class="node">
<title>&#45;4</title>
<polygon fill="lightgray" stroke="black" points="149.5,-110.01 126,-110.01 126,-91.51 149.5,-91.51 149.5,-110.01"/>
<text xml:space="preserve" text-anchor="middle" x="137.75" y="-97.46" font-family="Times New Roman,serif" font-size="9.00">&#45;4</text>
</g>
<!-- &#45;4&#45;&gt;bird_y -->
<g id="edge4" class="edge">
<title>&#45;4&#45;&gt;bird_y</title>
<path fill="none" stroke="red" stroke-width="0.16" d="M130.02,-91.05C122.41,-82.46 110.35,-68.88 99.44,-56.58"/>
<polygon fill="red" stroke="red" stroke-width="0.16" points="102.26,-54.49 93.01,-49.33 97.03,-59.14 102.26,-54.49"/>
</g>
</g>
</svg>
