<?xml version="1.0" encoding="UTF-8" standalone="no"?>
<!DOCTYPE svg PUBLIC "-//W3C//DTD SVG 1.1//EN"
 "http://www.w3.org/Graphics/SVG/1.1/DTD/svg11.dtd">
<!-- Generated by graphviz version 14.1.0 (20251206.1807)
 -->
<!-- Pages: 1 -->
<svg width="242pt" height="91pt"
 viewBox="0.00 0.00 242.00 91.00" xmlns="http://www.w3.org/2000/svg" xmlns:xlink="http://www.w3.org/1999/xlink">
<g id="graph0" class="graph" transform="scale(1 1) rotate(0) translate(4 87.49)">
<polygon fill="white" stroke="none" points="-4,4 -4,-87.49 238.12,-87.49 238.12,4 -4,4"/>
<!-- Bird Y -->
<g id="node1" class="node">
<title>Bird Y</title>
<polygon fill="lightgray" stroke="black" points="40.75,-83.49 0,-83.49 0,-64.99 40.75,-64.99 40.75,-83.49"/>
<text xml:space="preserve" text-anchor="middle" x="20.38" y="-70.94" font-family="Times New Roman,serif" font-size="9.00">Bird Y</text>
</g>
<!-- 0 -->
<g id="node5" class="node">
<title>0</title>
<ellipse fill="lightblue" stroke="black" cx="53.38" cy="-14.5" rx="14.5" ry="14.5"/>
<text xml:space="preserve" text-anchor="middle" x="53.38" y="-11.2" font-family="Times New Roman,serif" font-size="9.00">0</text>
</g>
<!-- Bird Y&#45;&gt;0 -->
<g id="edge1" class="edge">
<title>Bird Y&#45;&gt;0</title>
<path fill="none" stroke="green" stroke-width="0.27" d="M25.24,-64.72C29.48,-57.3 35.81,-46.24 41.38,-36.48"/>
<polygon fill="green" stroke="green" stroke-width="0.27" points="44.29,-38.45 46.21,-28.04 38.21,-34.98 44.29,-38.45"/>
</g>
<!-- Dist to Pipe -->
<g id="node2" class="node">
<title>Dist to Pipe</title>
<polygon fill="lightgray" stroke="black" points="192.38,-83.49 134.38,-83.49 134.38,-64.99 192.38,-64.99 192.38,-83.49"/>
<text xml:space="preserve" text-anchor="middle" x="163.38" y="-70.94" font-family="Times New Roman,serif" font-size="9.00">Dist to Pipe</text>
</g>
<!-- Dist to Gap -->
<g id="node3" class="node">
<title>Dist to Gap</title>
<polygon fill="lightgray" stroke="black" points="116,-83.49 58.75,-83.49 58.75,-64.99 116,-64.99 116,-83.49"/>
<text xml:space="preserve" text-anchor="middle" x="87.38" y="-70.94" font-family="Times New Roman,serif" font-size="9.00">Dist to Gap</text>
</g>
<!-- Dist to Gap&#45;&gt;0 -->
<g id="edge2" class="edge">
<title>Dist to Gap&#45;&gt;0</title>
<path fill="none" stroke="red" stroke-width="0.33" d="M82.36,-64.72C77.93,-57.21 71.31,-45.95 65.51,-36.1"/>
<polygon fill="red" stroke="red" stroke-width="0.33" points="68.64,-34.52 60.55,-27.68 62.61,-38.07 68.64,-34.52"/>
</g>
<!-- &#45;4 -->
<g id="node4" class="node">
<title>&#45;4</title>
<polygon fill="lightgray" stroke="black" points="234.12,-83.49 210.62,-83.49 210.62,-64.99 234.12,-64.99 234.12,-83.49"/>
<text xml:space="preserve" text-anchor="middle" x="222.38" y="-70.94" font-family="Times New Roman,serif" font-size="9.00">&#45;4</text>
</g>
</g>
</svg>
