<?xml version="1.0" encoding="UTF-8" standalone="no"?>
<!DOCTYPE svg PUBLIC "-//W3C//DTD SVG 1.1//EN"
 "http://www.w3.org/Graphics/SVG/1.1/DTD/svg11.dtd">
<!-- Generated by graphviz version 14.1.0 (20251206.1807)
 -->
<!-- Pages: 1 -->
<svg width="163pt" height="91pt"
 viewBox="0.00 0.00 163.00 91.00" xmlns="http://www.w3.org/2000/svg" xmlns:xlink="http://www.w3.org/1999/xlink">
<g id="graph0" class="graph" transform="scale(1 1) rotate(0) translate(4 87.49)">
<polygon fill="white" stroke="none" points="-4,4 -4,-87.49 159.25,-87.49 159.25,4 -4,4"/>
<!-- &#45;1 -->
<g id="node1" class="node">
<title>&#45;1</title>
<polygon fill="lightgray" stroke="black" points="113.25,-83.49 89.75,-83.49 89.75,-64.99 113.25,-64.99 113.25,-83.49"/>
<text xml:space="preserve" text-anchor="middle" x="101.5" y="-70.94" font-family="Times New Roman,serif" font-size="9.00">&#45;1</text>
</g>
<!-- 1 -->
<g id="node6" class="node">
<title>1</title>
<ellipse fill="lightblue" stroke="black" cx="61.5" cy="-14.5" rx="14.5" ry="14.5"/>
<text xml:space="preserve" text-anchor="middle" x="61.5" y="-11.2" font-family="Times New Roman,serif" font-size="9.00">1</text>
</g>
<!-- &#45;1&#45;&gt;1 -->
<g id="edge1" class="edge">
<title>&#45;1&#45;&gt;1</title>
<path fill="none" stroke="green" stroke-width="0.67" d="M95.59,-64.72C90.32,-57.11 82.4,-45.67 75.51,-35.73"/>
<polygon fill="green" stroke="green" stroke-width="0.67" points="78.5,-33.89 69.93,-27.66 72.74,-37.88 78.5,-33.89"/>
</g>
<!-- 2 -->
<g id="node7" class="node">
<title>2</title>
<ellipse fill="lightblue" stroke="black" cx="125.5" cy="-14.5" rx="14.5" ry="14.5"/>
<text xml:space="preserve" text-anchor="middle" x="125.5" y="-11.2" font-family="Times New Roman,serif" font-size="9.00">2</text>
</g>
<!-- &#45;1&#45;&gt;2 -->
<g id="edge5" class="edge">
<title>&#45;1&#45;&gt;2</title>
<path fill="none" stroke="green" stroke-width="0.24" d="M105.04,-64.72C108.02,-57.55 112.41,-46.97 116.37,-37.45"/>
<polygon fill="green" stroke="green" stroke-width="0.24" points="119.51,-39.02 120.12,-28.44 113.05,-36.33 119.51,-39.02"/>
</g>
<!-- &#45;2 -->
<g id="node2" class="node">
<title>&#45;2</title>
<polygon fill="lightgray" stroke="black" points="71.25,-83.49 47.75,-83.49 47.75,-64.99 71.25,-64.99 71.25,-83.49"/>
<text xml:space="preserve" text-anchor="middle" x="59.5" y="-70.94" font-family="Times New Roman,serif" font-size="9.00">&#45;2</text>
</g>
<!-- &#45;2&#45;&gt;1 -->
<g id="edge6" class="edge">
<title>&#45;2&#45;&gt;1</title>
<path fill="none" stroke="green" stroke-width="0.39" d="M59.79,-64.72C60.02,-58.12 60.35,-48.63 60.66,-39.74"/>
<polygon fill="green" stroke="green" stroke-width="0.39" points="64.14,-40.13 60.99,-30.02 57.15,-39.89 64.14,-40.13"/>
</g>
<!-- &#45;3 -->
<g id="node3" class="node">
<title>&#45;3</title>
<polygon fill="lightgray" stroke="black" points="28.25,-83.49 4.75,-83.49 4.75,-64.99 28.25,-64.99 28.25,-83.49"/>
<text xml:space="preserve" text-anchor="middle" x="16.5" y="-70.94" font-family="Times New Roman,serif" font-size="9.00">&#45;3</text>
</g>
<!-- 0 -->
<g id="node5" class="node">
<title>0</title>
<ellipse fill="lightblue" stroke="black" cx="14.5" cy="-14.5" rx="14.5" ry="14.5"/>
<text xml:space="preserve" text-anchor="middle" x="14.5" y="-11.2" font-family="Times New Roman,serif" font-size="9.00">0</text>
</g>
<!-- &#45;3&#45;&gt;0 -->
<g id="edge2" class="edge">
<title>&#45;3&#45;&gt;0</title>
<path fill="none" stroke="green" stroke-width="0.37" d="M16.2,-64.72C15.97,-58.12 15.64,-48.63 15.34,-39.74"/>
<polygon fill="green" stroke="green" stroke-width="0.37" points="18.84,-39.86 15,-29.99 11.85,-40.11 18.84,-39.86"/>
</g>
<!-- &#45;3&#45;&gt;1 -->
<g id="edge3" class="edge">
<title>&#45;3&#45;&gt;1</title>
<path fill="none" stroke="red" stroke-width="0.13" d="M23.14,-64.72C29.32,-56.78 38.77,-44.66 46.74,-34.43"/>
<polygon fill="red" stroke="red" stroke-width="0.13" points="49.47,-36.62 52.86,-26.58 43.95,-32.32 49.47,-36.62"/>
</g>
<!-- &#45;4 -->
<g id="node4" class="node">
<title>&#45;4</title>
<polygon fill="lightgray" stroke="black" points="155.25,-83.49 131.75,-83.49 131.75,-64.99 155.25,-64.99 155.25,-83.49"/>
<text xml:space="preserve" text-anchor="middle" x="143.5" y="-70.94" font-family="Times New Roman,serif" font-size="9.00">&#45;4</text>
</g>
<!-- &#45;4&#45;&gt;2 -->
<g id="edge4" class="edge">
<title>&#45;4&#45;&gt;2</title>
<path fill="none" stroke="green" stroke-width="0.16" d="M140.84,-64.72C138.66,-57.72 135.46,-47.46 132.55,-38.12"/>
<polygon fill="green" stroke="green" stroke-width="0.16" points="135.95,-37.28 129.63,-28.77 129.27,-39.36 135.95,-37.28"/>
</g>
</g>
</svg>
