<?xml version="1.0" encoding="UTF-8" standalone="no"?>
<!DOCTYPE svg PUBLIC "-//W3C//DTD SVG 1.1//EN"
 "http://www.w3.org/Graphics/SVG/1.1/DTD/svg11.dtd">
<!-- Generated by graphviz version 14.1.0 (20251206.1807)
 -->
<!-- Pages: 1 -->
<svg width="261pt" height="199pt"
 viewBox="0.00 0.00 261.00 199.00" xmlns="http://www.w3.org/2000/svg" xmlns:xlink="http://www.w3.org/1999/xlink">
<g id="graph0" class="graph" transform="scale(1 1) rotate(0) translate(4 194.91)">
<polygon fill="white" stroke="none" points="-4,4 -4,-194.91 256.55,-194.91 256.55,4 -4,4"/>
<!-- x_offset -->
<g id="node1" class="node">
<title>x_offset</title>
<polygon fill="lightgray" stroke="black" points="139.3,-190.91 94.05,-190.91 94.05,-172.41 139.3,-172.41 139.3,-190.91"/>
<text xml:space="preserve" text-anchor="middle" x="116.68" y="-178.36" font-family="Times New Roman,serif" font-size="9.00">x_offset</text>
</g>
<!-- Left -->
<g id="node5" class="node">
<title>Left</title>
<ellipse fill="lightblue" stroke="black" cx="112.68" cy="-111.31" rx="21.39" ry="21.39"/>
<text xml:space="preserve" text-anchor="middle" x="112.68" y="-108.01" font-family="Times New Roman,serif" font-size="9.00">Left</text>
</g>
<!-- x_offset&#45;&gt;Left -->
<g id="edge2" class="edge">
<title>x_offset&#45;&gt;Left</title>
<path fill="none" stroke="red" stroke-width="0.22" d="M116.17,-172C115.74,-164.67 115.1,-153.71 114.48,-143.17"/>
<polygon fill="red" stroke="red" stroke-width="0.22" points="117.98,-143.03 113.9,-133.25 110.99,-143.44 117.98,-143.03"/>
</g>
<!-- None -->
<g id="node6" class="node">
<title>None</title>
<ellipse fill="lightblue" stroke="black" cx="176.68" cy="-111.31" rx="25.1" ry="25.1"/>
<text xml:space="preserve" text-anchor="middle" x="176.68" y="-108.01" font-family="Times New Roman,serif" font-size="9.00">None</text>
</g>
<!-- x_offset&#45;&gt;None -->
<g id="edge10" class="edge">
<title>x_offset&#45;&gt;None</title>
<path fill="none" stroke="red" stroke-width="0.11" d="M124.28,-172C131.67,-163.57 143.3,-150.34 153.72,-138.47"/>
<polygon fill="red" stroke="red" stroke-width="0.11" points="156.25,-140.88 160.22,-131.06 150.99,-136.26 156.25,-140.88"/>
</g>
<!-- v_cart -->
<g id="node2" class="node">
<title>v_cart</title>
<polygon fill="lightgray" stroke="black" points="252.55,-190.91 214.8,-190.91 214.8,-172.41 252.55,-172.41 252.55,-190.91"/>
<text xml:space="preserve" text-anchor="middle" x="233.68" y="-178.36" font-family="Times New Roman,serif" font-size="9.00">v_cart</text>
</g>
<!-- v_cart&#45;&gt;None -->
<g id="edge1" class="edge">
<title>v_cart&#45;&gt;None</title>
<path fill="none" stroke="green" stroke-width="0.6" d="M226.46,-172C219.61,-163.79 208.96,-151.02 199.26,-139.39"/>
<polygon fill="green" stroke="green" stroke-width="0.6" points="202.11,-137.34 193.02,-131.9 196.74,-141.83 202.11,-137.34"/>
</g>
<!-- Right -->
<g id="node7" class="node">
<title>Right</title>
<ellipse fill="lightblue" stroke="black" cx="63.68" cy="-25.1" rx="25.1" ry="25.1"/>
<text xml:space="preserve" text-anchor="middle" x="63.68" y="-21.8" font-family="Times New Roman,serif" font-size="9.00">Right</text>
</g>
<!-- v_cart&#45;&gt;Right -->
<g id="edge6" class="edge">
<title>v_cart&#45;&gt;Right</title>
<path fill="none" stroke="red" stroke-width="0.39" stroke-dasharray="1,5" d="M234.03,-171.94C234.3,-153.75 232.37,-111.4 210.68,-86.2 182.19,-53.11 132.7,-37.96 99.09,-31.22"/>
<polygon fill="red" stroke="red" stroke-width="0.39" points="99.84,-27.8 89.37,-29.42 98.56,-34.68 99.84,-27.8"/>
</g>
<!-- sin_theta -->
<g id="node3" class="node">
<title>sin_theta</title>
<polygon fill="lightgray" stroke="black" points="76.43,-190.91 28.93,-190.91 28.93,-172.41 76.43,-172.41 76.43,-190.91"/>
<text xml:space="preserve" text-anchor="middle" x="52.68" y="-178.36" font-family="Times New Roman,serif" font-size="9.00">sin_theta</text>
</g>
<!-- sin_theta&#45;&gt;Left -->
<g id="edge5" class="edge">
<title>sin_theta&#45;&gt;Left</title>
<path fill="none" stroke="green" stroke-width="0.21" d="M60.28,-172C68.27,-162.9 81.18,-148.18 92.19,-135.64"/>
<polygon fill="green" stroke="green" stroke-width="0.21" points="94.57,-138.24 98.54,-128.42 89.31,-133.62 94.57,-138.24"/>
</g>
<!-- sin_theta&#45;&gt;None -->
<g id="edge9" class="edge">
<title>sin_theta&#45;&gt;None</title>
<path fill="none" stroke="green" stroke-width="0.3" d="M72.46,-172.04C91.02,-163.69 119.34,-150.3 142.68,-136.41 144.6,-135.27 146.55,-134.05 148.5,-132.79"/>
<polygon fill="green" stroke="green" stroke-width="0.3" points="150.18,-135.88 156.52,-127.38 146.27,-130.07 150.18,-135.88"/>
</g>
<!-- sin_theta&#45;&gt;Right -->
<g id="edge3" class="edge">
<title>sin_theta&#45;&gt;Right</title>
<path fill="none" stroke="red" stroke-width="0.49" stroke-dasharray="1,5" d="M53.27,-172.35C54.73,-151.78 58.59,-97.53 61.18,-61.2"/>
<polygon fill="red" stroke="red" stroke-width="0.49" points="64.67,-61.53 61.88,-51.3 57.68,-61.03 64.67,-61.53"/>
</g>
<!-- 35 -->
<g id="node8" class="node">
<title>35</title>
<ellipse fill="white" stroke="black" cx="17.68" cy="-111.31" rx="17.68" ry="17.68"/>
<text xml:space="preserve" text-anchor="middle" x="17.68" y="-108.01" font-family="Times New Roman,serif" font-size="9.00">35</text>
</g>
<!-- sin_theta&#45;&gt;35 -->
<g id="edge7" class="edge">
<title>sin_theta&#45;&gt;35</title>
<path fill="none" stroke="green" stroke-width="0.2" d="M48.24,-172C43.7,-163.13 36.43,-148.92 30.11,-136.59"/>
<polygon fill="green" stroke="green" stroke-width="0.2" points="33.35,-135.23 25.67,-127.92 27.12,-138.42 33.35,-135.23"/>
</g>
<!-- omega -->
<g id="node4" class="node">
<title>omega</title>
<polygon fill="lightgray" stroke="black" points="196.3,-190.91 157.05,-190.91 157.05,-172.41 196.3,-172.41 196.3,-190.91"/>
<text xml:space="preserve" text-anchor="middle" x="176.68" y="-178.36" font-family="Times New Roman,serif" font-size="9.00">omega</text>
</g>
<!-- omega&#45;&gt;None -->
<g id="edge4" class="edge">
<title>omega&#45;&gt;None</title>
<path fill="none" stroke="red" stroke-width="0.47" d="M176.68,-172C176.68,-165.65 176.68,-156.57 176.68,-147.4"/>
<polygon fill="red" stroke="red" stroke-width="0.47" points="180.18,-147.46 176.68,-137.46 173.18,-147.46 180.18,-147.46"/>
</g>
<!-- 35&#45;&gt;Right -->
<g id="edge8" class="edge">
<title>35&#45;&gt;Right</title>
<path fill="none" stroke="red" stroke-width="0.43" d="M25.9,-95.25C31.72,-84.59 39.74,-69.93 46.89,-56.84"/>
<polygon fill="red" stroke="red" stroke-width="0.43" points="49.86,-58.69 51.58,-48.24 43.72,-55.34 49.86,-58.69"/>
</g>
</g>
</svg>
