<?xml version="1.0" encoding="UTF-8" standalone="no"?>
<!DOCTYPE svg PUBLIC "-//W3C//DTD SVG 1.1//EN"
 "http://www.w3.org/Graphics/SVG/1.1/DTD/svg11.dtd">
<!-- Generated by graphviz version 14.1.0 (20251206.1807)
 -->
<!-- Pages: 1 -->
<svg width="124pt" height="107pt"
 viewBox="0.00 0.00 124.00 107.00" xmlns="http://www.w3.org/2000/svg" xmlns:xlink="http://www.w3.org/1999/xlink">
<g id="graph0" class="graph" transform="scale(1 1) rotate(0) translate(4 103.4)">
<polygon fill="white" stroke="none" points="-4,4 -4,-103.4 120.38,-103.4 120.38,4 -4,4"/>
<!-- Bird Y -->
<g id="node1" class="node">
<title>Bird Y</title>
<polygon fill="lightgray" stroke="black" points="40.75,-99.4 0,-99.4 0,-80.9 40.75,-80.9 40.75,-99.4"/>
<text xml:space="preserve" text-anchor="middle" x="20.38" y="-86.85" font-family="Times New Roman,serif" font-size="9.00">Bird Y</text>
</g>
<!-- Dist to Pipe -->
<g id="node2" class="node">
<title>Dist to Pipe</title>
<polygon fill="lightgray" stroke="black" points="116.38,-99.4 58.38,-99.4 58.38,-80.9 116.38,-80.9 116.38,-99.4"/>
<text xml:space="preserve" text-anchor="middle" x="87.38" y="-86.85" font-family="Times New Roman,serif" font-size="9.00">Dist to Pipe</text>
</g>
<!-- Flap -->
<g id="node3" class="node">
<title>Flap</title>
<ellipse fill="lightblue" stroke="black" cx="87.38" cy="-22.45" rx="22.45" ry="22.45"/>
<text xml:space="preserve" text-anchor="middle" x="87.38" y="-19.15" font-family="Times New Roman,serif" font-size="9.00">Flap</text>
</g>
<!-- Dist to Pipe&#45;&gt;Flap -->
<g id="edge1" class="edge">
<title>Dist to Pipe&#45;&gt;Flap</title>
<path fill="none" stroke="red" stroke-width="0.55" d="M87.38,-80.56C87.38,-74.23 87.38,-65.19 87.38,-56.15"/>
<polygon fill="red" stroke="red" stroke-width="0.55" points="90.88,-56.16 87.38,-46.16 83.88,-56.16 90.88,-56.16"/>
</g>
</g>
</svg>
